<svg width="1013" height="135" viewBox="0 0 1013 135" fill="none" xmlns="http://www.w3.org/2000/svg">
<path d="M0.391328 47V3.6H16.5113L25.5013 25.92H27.0513L36.0413 3.6H52.1613V47H40.6913V22.2L41.6213 16.62H41.0013L32.6313 37.08H19.9213L11.5513 16.62H10.9313L11.8613 22.2V47H0.391328ZM100.822 47V3.6H112.292V47H100.822ZM60.2116 47V3.6H71.6816V16.62H79.4316C85.0116 16.62 89.393 18.046 92.5756 20.898C95.7996 23.7087 97.4116 27.346 97.4116 31.81C97.4116 36.274 95.7996 39.932 92.5756 42.784C89.393 45.5947 85.0116 47 79.4316 47H60.2116ZM71.6816 36.46H80.0516C81.7876 36.46 83.1516 36.0467 84.1436 35.22C85.1356 34.352 85.6316 33.2153 85.6316 31.81C85.6316 30.4047 85.1356 29.2887 84.1436 28.462C83.1516 27.594 81.7876 27.16 80.0516 27.16H71.6816V36.46ZM141.618 38.754C137.567 34.9927 135.542 30.4047 135.542 24.99C135.542 19.5753 137.567 15.008 141.618 11.288C145.668 7.52666 150.98 5.48066 157.552 5.15V0.809996H169.022V5.15C175.594 5.48066 180.905 7.52666 184.956 11.288C189.006 15.008 191.032 19.5753 191.032 24.99C191.032 30.4047 189.006 34.9927 184.956 38.754C180.905 42.474 175.594 44.4993 169.022 44.83V49.17H157.552V44.83C150.98 44.4993 145.668 42.474 141.618 38.754ZM169.022 15.38V34.6C171.956 34.4347 174.333 33.4633 176.152 31.686C178.012 29.8673 178.942 27.6353 178.942 24.99C178.942 22.3447 178.012 20.1333 176.152 18.356C174.333 16.5373 171.956 15.5453 169.022 15.38ZM150.36 18.356C148.541 20.1333 147.632 22.3447 147.632 24.99C147.632 27.6353 148.541 29.8673 150.36 31.686C152.22 33.4633 154.617 34.4347 157.552 34.6V15.38C154.617 15.5453 152.22 16.5373 150.36 18.356ZM201.886 41.544C197.34 37.0387 195.066 31.624 195.066 25.3C195.066 18.976 197.34 13.582 201.886 9.118C206.474 4.61267 212.261 2.36 219.246 2.36C226.232 2.36 231.998 4.61267 236.544 9.118C241.132 13.582 243.426 18.976 243.426 25.3C243.426 31.624 241.132 37.0387 236.544 41.544C231.998 46.008 226.232 48.24 219.246 48.24C212.261 48.24 206.474 46.008 201.886 41.544ZM210.504 16.31C208.272 18.5833 207.156 21.58 207.156 25.3C207.156 29.02 208.272 32.0167 210.504 34.29C212.736 36.5633 215.65 37.7 219.246 37.7C222.842 37.7 225.756 36.5633 227.988 34.29C230.22 32.0167 231.336 29.02 231.336 25.3C231.336 21.58 230.22 18.5833 227.988 16.31C225.756 14.0367 222.842 12.9 219.246 12.9C215.65 12.9 212.736 14.0367 210.504 16.31ZM249.602 47V3.6H261.072V19.72H266.032L276.572 3.6H289.592L275.952 24.06L290.522 47H277.502L266.652 30.26H261.072V47H249.602ZM290.188 3.6H302.278L309.408 22.2H314.058L321.188 3.6H332.968L316.228 47H304.448L310.028 32.74H301.658L290.188 3.6ZM339.75 41.73C335.245 37.3487 332.992 31.872 332.992 25.3C332.992 18.728 335.245 13.272 339.75 8.932C344.297 4.55067 350.104 2.36 357.172 2.36C364.984 2.36 371.122 5.212 375.586 10.916C377.57 13.52 378.976 16.3513 379.802 19.41H368.022C367.402 18.1287 366.638 17.054 365.728 16.186C363.538 13.9953 360.686 12.9 357.172 12.9C353.576 12.9 350.662 14.0367 348.43 16.31C346.198 18.5833 345.082 21.58 345.082 25.3C345.082 29.02 346.198 32.0167 348.43 34.29C350.662 36.5633 353.576 37.7 357.172 37.7C361.058 37.7 364.075 36.46 366.224 33.98C367.216 32.864 367.919 31.624 368.332 30.26H380.112C379.203 33.608 377.736 36.6047 375.71 39.25C371.288 45.2433 365.108 48.24 357.172 48.24C350.104 48.24 344.297 46.07 339.75 41.73ZM386.014 47V3.6H397.484V24.99L396.554 30.57H397.174L412.984 3.6H426.314V47H414.844V25.61L415.774 20.03H415.154L399.344 47H386.014ZM434.391 47V3.6H455.471C460.803 3.6 465.123 5.12933 468.429 8.188C471.777 11.2053 473.451 14.946 473.451 19.41C473.451 23.874 471.777 27.6353 468.429 30.694C465.123 33.7113 460.803 35.22 455.471 35.22H445.861V47H434.391ZM445.861 24.68H455.161C457.311 24.68 458.923 24.2047 459.997 23.254C461.113 22.3033 461.671 21.022 461.671 19.41C461.671 17.798 461.113 16.5167 459.997 15.566C458.923 14.6153 457.311 14.14 455.161 14.14H445.861V24.68ZM473.766 3.6H485.856L492.986 22.2H497.636L504.766 3.6H516.546L499.806 47H488.026L493.606 32.74H485.236L473.766 3.6ZM519.641 47V3.6H553.121V14.14H531.111V20.65H548.781V29.95H531.111V36.46H553.121V47H519.641ZM559.602 47V3.6H575.722L584.712 25.92H586.262L595.252 3.6H611.372V47H599.902V22.2L600.832 16.62H600.212L591.842 37.08H579.132L570.762 16.62H570.142L571.072 22.2V47H559.602ZM636.8 47V3.6H660.05C664.514 3.6 668.006 4.63333 670.528 6.7C673.049 8.76666 674.31 11.35 674.31 14.45C674.31 17.55 673.173 19.9887 670.9 21.766C669.825 22.51 668.688 23.068 667.49 23.44V23.75C669.06 24.2047 670.445 24.8453 671.644 25.672C674.454 27.6147 675.86 30.4873 675.86 34.29C675.86 38.01 674.434 41.0687 671.582 43.466C668.73 45.822 664.679 47 659.43 47H636.8ZM648.27 20.34H657.57C659.099 20.34 660.256 20.0093 661.042 19.348C661.827 18.6453 662.22 17.736 662.22 16.62C662.22 15.504 661.827 14.6153 661.042 13.954C660.256 13.2513 659.099 12.9 657.57 12.9H648.27V20.34ZM648.27 37.7H658.19C660.132 37.7 661.6 37.3073 662.592 36.522C663.584 35.7367 664.08 34.6827 664.08 33.36C664.08 32.0373 663.584 30.9833 662.592 30.198C661.6 29.4127 660.132 29.02 658.19 29.02H648.27V37.7ZM682.089 47V3.6H693.559V19.72H710.299V3.6H721.769V47H710.299V30.26H693.559V47H682.089ZM729.8 47V3.6H741.27V24.99L740.34 30.57H740.96L756.77 3.6H770.1V47H758.63V25.61L759.56 20.03H758.94L743.13 47H729.8ZM778.176 47V3.6H794.296L803.286 25.92H804.836L813.826 3.6H829.946V47H818.476V22.2L819.406 16.62H818.786L810.416 37.08H797.706L789.336 16.62H788.716L789.646 22.2V47H778.176ZM833.967 47L845.747 3.6H866.827L878.607 47H866.827L864.657 38.32H847.917L845.747 47H833.967ZM850.397 28.4H862.177L858.457 14.14H854.117L850.397 28.4ZM882.62 47V3.6H894.09V19.72H910.83V3.6H922.3V47H910.83V30.26H894.09V47H882.62ZM930.331 47V3.6H941.801V24.99L940.871 30.57H941.491L957.301 3.6H970.631V47H959.161V25.61L960.091 20.03H959.471L943.661 47H930.331ZM978.708 47V3.6H1012.19V14.14H990.178V20.65H1007.85V29.95H990.178V36.46H1012.19V47H978.708ZM57.9678 127L69.7478 83.6H90.8278L102.608 127H90.8278L88.6578 118.32H71.9178L69.7478 127H57.9678ZM74.3978 108.4H86.1778L82.4578 94.14H78.1178L74.3978 108.4ZM99.1929 83.6H111.283L118.413 102.2H123.063L130.193 83.6H141.973L125.233 127H113.453L119.033 112.74H110.663L99.1929 83.6ZM137.655 134.44V116.46H142.615L151.295 83.6H172.685L181.365 116.46H186.325V134.44H175.475V127H148.505V134.44H137.655ZM153.465 116.46H170.515L164.625 94.14H159.355L153.465 116.46ZM190.66 127V83.6H202.13V104.99L201.2 110.57H201.82L217.63 83.6H230.96V127H219.49V105.61L220.42 100.03H219.8L203.99 127H190.66ZM235.627 94.14V83.6H274.377V94.14H260.737V127H249.267V94.14H235.627ZM283.958 121.544C279.411 117.039 277.138 111.624 277.138 105.3C277.138 98.976 279.411 93.582 283.958 89.118C288.546 84.6127 294.332 82.36 301.318 82.36C308.303 82.36 314.069 84.6127 318.616 89.118C323.204 93.582 325.498 98.976 325.498 105.3C325.498 111.624 323.204 117.039 318.616 121.544C314.069 126.008 308.303 128.24 301.318 128.24C294.332 128.24 288.546 126.008 283.958 121.544ZM292.576 96.31C290.344 98.5833 289.228 101.58 289.228 105.3C289.228 109.02 290.344 112.017 292.576 114.29C294.808 116.563 297.722 117.7 301.318 117.7C304.914 117.7 307.828 116.563 310.06 114.29C312.292 112.017 313.408 109.02 313.408 105.3C313.408 101.58 312.292 98.5833 310.06 96.31C307.828 94.0367 304.914 92.9 301.318 92.9C297.722 92.9 294.808 94.0367 292.576 96.31ZM331.674 127V83.6H352.754C358.086 83.6 362.405 85.1293 365.712 88.188C369.06 91.2053 370.734 94.946 370.734 99.41C370.734 103.874 369.06 107.635 365.712 110.694C362.405 113.711 358.086 115.22 352.754 115.22H343.144V127H331.674ZM343.144 104.68H352.444C354.593 104.68 356.205 104.205 357.28 103.254C358.396 102.303 358.954 101.022 358.954 99.41C358.954 97.798 358.396 96.5167 357.28 95.566C356.205 94.6153 354.593 94.14 352.444 94.14H343.144V104.68ZM376.599 127V83.6H388.069V104.99L387.139 110.57H387.759L403.569 83.6H416.899V127H405.429V105.61L406.359 100.03H405.739L389.929 127H376.599ZM424.976 127V83.6H436.446V104.99L435.516 110.57H436.136L451.946 83.6H465.276V127H453.806V105.61L454.736 100.03H454.116L438.306 127H424.976ZM490.73 127V83.6H502.2V99.72H518.94V83.6H530.41V127H518.94V110.26H502.2V127H490.73ZM534.411 127L546.191 83.6H567.271L579.051 127H567.271L565.101 118.32H548.361L546.191 127H534.411ZM550.841 108.4H562.621L558.901 94.14H554.561L550.841 108.4ZM598.564 127V83.6H638.244V127H626.774V94.14H610.034V127H598.564ZM646.275 127V83.6H667.355C672.687 83.6 677.006 85.1293 680.313 88.188C683.661 91.2053 685.335 94.946 685.335 99.41C685.335 103.874 683.661 107.635 680.313 110.694C677.006 113.711 672.687 115.22 667.355 115.22H657.745V127H646.275ZM657.745 104.68H667.045C669.194 104.68 670.806 104.205 671.881 103.254C672.997 102.303 673.555 101.022 673.555 99.41C673.555 97.798 672.997 96.5167 671.881 95.566C670.806 94.6153 669.194 94.14 667.045 94.14H657.745V104.68ZM696.161 121.544C691.614 117.039 689.341 111.624 689.341 105.3C689.341 98.976 691.614 93.582 696.161 89.118C700.749 84.6127 706.536 82.36 713.521 82.36C720.506 82.36 726.272 84.6127 730.819 89.118C735.407 93.582 737.701 98.976 737.701 105.3C737.701 111.624 735.407 117.039 730.819 121.544C726.272 126.008 720.506 128.24 713.521 128.24C706.536 128.24 700.749 126.008 696.161 121.544ZM704.779 96.31C702.547 98.5833 701.431 101.58 701.431 105.3C701.431 109.02 702.547 112.017 704.779 114.29C707.011 116.563 709.925 117.7 713.521 117.7C717.117 117.7 720.031 116.563 722.263 114.29C724.495 112.017 725.611 109.02 725.611 105.3C725.611 101.58 724.495 98.5833 722.263 96.31C720.031 94.0367 717.117 92.9 713.521 92.9C709.925 92.9 707.011 94.0367 704.779 96.31ZM740.157 134.44V116.46H745.117L753.797 83.6H775.187L783.867 116.46H788.827V134.44H777.977V127H751.007V134.44H740.157ZM755.967 116.46H773.017L767.127 94.14H761.857L755.967 116.46ZM786.339 83.6H798.429L805.559 102.2H810.209L817.339 83.6H829.119L812.379 127H800.599L806.179 112.74H797.809L786.339 83.6ZM832.215 127V83.6H843.685V99.72H848.645L859.185 83.6H872.205L858.565 104.06L873.135 127H860.115L849.265 110.26H843.685V127H832.215ZM873.73 94.14V83.6H912.48V94.14H898.84V127H887.37V94.14H873.73ZM917.101 127V83.6H950.581V94.14H928.571V100.65H946.241V109.95H928.571V116.46H950.581V127H917.101Z" fill="#F5F5F1"/>
</svg>
